#N canvas 116 127 862 567 10;
#X obj 37 37 inlet note;
#X obj 62 514 outlet~ left;
#X obj 147 515 outlet~ right;
#X obj 178 36 inlet control;
#X obj 60 72 unpack 0 0;
#X obj 110 453 bassemu~;
#X obj 134 99 select 0;
#X msg 134 122 -1;
#X obj 38 105 spigot;
#X obj 707 293 vradio 15 1 0 5 empty empty empty 0 -6 0 8 -262144 -1
-1 0;
#X msg 707 371 ext \$1;
#X obj 707 391 s \$0-bass_ctl;
#X obj 707 173 vradio 15 1 0 4 empty empty empty 0 -6 0 8 -262144 -1
-1 0;
#X obj 707 256 s \$0-bass_ctl;
#X msg 707 236 vco \$1;
#X obj 707 429 tgl 15 0 empty empty empty 0 -6 0 8 -262144 -1 -1 0
1;
#X obj 707 467 s \$0-bass_ctl;
#X msg 707 447 hpf \$1;
#X msg 706 112 tune \$1;
#X floatatom 706 94 5 0 0 0 - - -, f 5;
#X obj 706 134 s \$0-bass_ctl;
#X msg 706 71 440;
#X text 726 172 Saw;
#X text 726 188 Square;
#X text 726 204 Tri;
#X text 726 218 Sine;
#X text 727 430 VCO-HPF;
#X text 745 94 Tune;
#X text 724 291 Int.Only;
#X text 724 308 Ext.Only;
#X text 724 323 Int.+Ext.;
#X text 724 338 Ext.Only+HPF;
#X text 725 354 Int.+Ext.+HPF;
#X text 706 157 VCO WaveSelect:;
#X text 705 56 VCO Tuning:;
#X text 706 278 SoundSource:;
#X text 706 413 Extra HiPass:;
#X obj 79 161 s \$0-bass_ctl;
#X obj 110 427 r \$0-bass_ctl;
#X msg 49 425 reset;
#X obj 49 402 r reset;
#X text 266 181 CutOff;
#X text 320 181 Reso;
#X text 359 181 EnvMod;
#X text 409 181 Decay;
#X obj 511 197 vsl 25 128 0 127 0 0 empty empty empty 0 -8 0 8 -262144
-1 -1 0 1;
#X msg 511 353 glide \$1;
#X text 505 182 Glide;
#X obj 280 196 vsl 25 128 -1 1 0 0 empty empty empty 0 -8 0 8 -262144
-1 -1 0 1;
#X obj 326 196 vsl 25 128 -1 2 0 0 empty empty empty 0 -8 0 8 -262144
-1 -1 0 1;
#X obj 372 196 vsl 25 128 -1 2 0 0 empty empty empty 0 -8 0 8 -262144
-1 -1 0 1;
#X obj 418 196 vsl 25 128 -1 1 0 0 empty empty empty 0 -8 0 8 -262144
-1 -1 0 1;
#X obj 464 196 vsl 25 128 0 1 0 0 empty empty empty 0 -8 0 8 -262144
-1 -1 0 1;
#X msg 280 153 0.5;
#X msg 326 153 0.8;
#X msg 372 153 0.7;
#X msg 418 153 0.1;
#X msg 464 153 0.5;
#X msg 280 336 cutoff \$1;
#X msg 326 356 reso \$1;
#X obj 372 392 s \$0-bass_ctl;
#X msg 372 332 envmod \$1;
#X msg 418 352 decay \$1;
#X msg 464 332 pw \$1;
#X text 462 171 Rect;
#X text 459 181 Width;
#X obj 511 332 / 127;
#X obj 320 39 r loadbang;
#X msg 552 206 0;
#X msg 562 227 1;
#X msg 574 249 2;
#X msg 582 270 3;
#X obj 471 7 route button1 button2 button3 button4 button5;
#X obj 37 198 route knob1 knob2 knob3 knob4 knob5;
#X obj 37 225 - 64;
#X obj 37 246 / 64;
#X obj 82 223 / 42.3;
#X obj 81 248 - 1;
#X obj 137 226 / 42.3;
#X obj 136 251 - 1;
#X obj 188 226 / 127;
#X msg 185 322 limit 2;
#X obj 544 83 moses 1;
#X obj 555 102 moses 1;
#X obj 568 126 moses 1;
#X obj 582 150 moses 1;
#X obj 626 343 moses 1;
#X connect 0 0 4 0;
#X connect 3 0 72 0;
#X connect 3 0 73 0;
#X connect 4 0 8 0;
#X connect 4 1 6 0;
#X connect 4 1 8 1;
#X connect 5 0 2 0;
#X connect 5 0 1 0;
#X connect 6 0 7 0;
#X connect 7 0 37 0;
#X connect 8 0 37 0;
#X connect 9 0 10 0;
#X connect 10 0 11 0;
#X connect 12 0 14 0;
#X connect 14 0 13 0;
#X connect 15 0 17 0;
#X connect 17 0 16 0;
#X connect 18 0 20 0;
#X connect 19 0 18 0;
#X connect 21 0 19 0;
#X connect 38 0 5 0;
#X connect 39 0 5 0;
#X connect 40 0 39 0;
#X connect 45 0 66 0;
#X connect 46 0 60 0;
#X connect 48 0 58 0;
#X connect 49 0 59 0;
#X connect 50 0 61 0;
#X connect 51 0 62 0;
#X connect 52 0 63 0;
#X connect 53 0 48 0;
#X connect 54 0 49 0;
#X connect 55 0 50 0;
#X connect 56 0 51 0;
#X connect 57 0 52 0;
#X connect 58 0 60 0;
#X connect 59 0 60 0;
#X connect 61 0 60 0;
#X connect 62 0 60 0;
#X connect 63 0 60 0;
#X connect 66 0 46 0;
#X connect 67 0 53 0;
#X connect 67 0 54 0;
#X connect 67 0 55 0;
#X connect 67 0 56 0;
#X connect 67 0 57 0;
#X connect 67 0 81 0;
#X connect 68 0 12 0;
#X connect 69 0 12 0;
#X connect 70 0 12 0;
#X connect 71 0 12 0;
#X connect 72 0 82 0;
#X connect 72 1 83 0;
#X connect 72 2 84 0;
#X connect 72 3 85 0;
#X connect 72 4 86 0;
#X connect 73 0 74 0;
#X connect 73 1 76 0;
#X connect 73 2 78 0;
#X connect 73 3 80 0;
#X connect 73 4 45 0;
#X connect 74 0 75 0;
#X connect 75 0 48 0;
#X connect 76 0 77 0;
#X connect 77 0 49 0;
#X connect 78 0 79 0;
#X connect 79 0 50 0;
#X connect 80 0 52 0;
#X connect 81 0 5 0;
#X connect 82 1 68 0;
#X connect 83 1 69 0;
#X connect 84 1 70 0;
#X connect 85 1 71 0;
#X connect 86 1 15 0;
