#N canvas 600 23 609 664 10;
#X obj 58 149 mtof;
#X obj 457 575 line;
#X obj 384 564 *~;
#X obj 490 520 / 127;
#X obj 457 480 moses 1;
#X msg 489 551 \$1 10;
#X msg 450 513 0 10;
#X obj 336 504 * 0.8;
#X obj 302 545 hip~;
#X obj 60 411 phasor~;
#X obj 116 411 phasor~;
#X obj 168 411 phasor~;
#X obj 224 411 phasor~;
#X obj 278 412 phasor~;
#X obj 330 412 phasor~;
#X obj 386 412 phasor~;
#X obj 60 358 *, f 2;
#X obj 58 330 t b f;
#X obj 58 308 + 1;
#X obj 57 286 * -0.107;
#X obj 124 358 *, f 2;
#X obj 122 330 t b f;
#X obj 122 308 + 1;
#X obj 183 359 *, f 2;
#X obj 181 331 t b f;
#X obj 181 309 + 1;
#X obj 247 359 *, f 2;
#X obj 245 331 t b f;
#X obj 245 309 + 1;
#X obj 309 357 *, f 2;
#X obj 307 329 t b f;
#X obj 307 307 + 1;
#X obj 373 357 *, f 2;
#X obj 371 329 t b f;
#X obj 371 307 + 1;
#X obj 121 286 * -0.061;
#X obj 180 287 * -0.02;
#X obj 244 287 * 0.02;
#X obj 370 285 * 0.11;
#X obj 306 285 * 0.064;
#X obj 362 77 / 127;
#X obj 349 107 * 7;
#X obj 349 130 - 7;
#X obj 346 159 t b f;
#X msg 335 189 2;
#X obj 351 222 pow;
#X obj 271 499 *~ 0.25;
#X obj 63 116 unpack 0 0;
#X obj 61 86 inlet note;
#X obj 334 614 outlet~ L;
#X obj 400 615 outlet~ R;
#X obj 363 19 inlet control;
#X obj 361 48 route knob1;
#X obj 288 14 r loadbang;
#X msg 289 36 80;
#X connect 0 0 7 0;
#X connect 0 0 16 0;
#X connect 0 0 13 0;
#X connect 0 0 20 0;
#X connect 0 0 23 0;
#X connect 0 0 26 0;
#X connect 0 0 29 0;
#X connect 0 0 32 0;
#X connect 1 0 2 1;
#X connect 2 0 49 0;
#X connect 2 0 50 0;
#X connect 3 0 5 0;
#X connect 4 0 6 0;
#X connect 4 1 3 0;
#X connect 5 0 1 0;
#X connect 6 0 1 0;
#X connect 7 0 8 1;
#X connect 8 0 2 0;
#X connect 9 0 46 0;
#X connect 10 0 46 0;
#X connect 11 0 46 0;
#X connect 12 0 46 0;
#X connect 13 0 46 0;
#X connect 14 0 46 0;
#X connect 15 0 46 0;
#X connect 16 0 9 0;
#X connect 17 0 16 0;
#X connect 17 1 16 1;
#X connect 18 0 17 0;
#X connect 19 0 18 0;
#X connect 20 0 10 0;
#X connect 21 0 20 0;
#X connect 21 1 20 1;
#X connect 22 0 21 0;
#X connect 23 0 11 0;
#X connect 24 0 23 0;
#X connect 24 1 23 1;
#X connect 25 0 24 0;
#X connect 26 0 12 0;
#X connect 27 0 26 0;
#X connect 27 1 26 1;
#X connect 28 0 27 0;
#X connect 29 0 14 0;
#X connect 30 0 29 0;
#X connect 30 1 29 1;
#X connect 31 0 30 0;
#X connect 32 0 15 0;
#X connect 33 0 32 0;
#X connect 33 1 32 1;
#X connect 34 0 33 0;
#X connect 35 0 22 0;
#X connect 36 0 25 0;
#X connect 37 0 28 0;
#X connect 38 0 34 0;
#X connect 39 0 31 0;
#X connect 40 0 41 0;
#X connect 41 0 42 0;
#X connect 42 0 43 0;
#X connect 43 0 44 0;
#X connect 43 1 45 1;
#X connect 44 0 45 0;
#X connect 45 0 19 0;
#X connect 45 0 35 0;
#X connect 45 0 36 0;
#X connect 45 0 37 0;
#X connect 45 0 39 0;
#X connect 45 0 38 0;
#X connect 46 0 8 0;
#X connect 47 0 0 0;
#X connect 47 1 4 0;
#X connect 48 0 47 0;
#X connect 51 0 52 0;
#X connect 52 0 40 0;
#X connect 53 0 54 0;
#X connect 54 0 40 0;
