#N canvas 419 142 829 538 10;
#X msg 27 341 mod \$1;
#X msg 78 342 volume \$1;
#X msg 146 342 knob1 \$1;
#X msg 206 343 knob2 \$1;
#X msg 264 343 knob3 \$1;
#X msg 324 344 knob4 \$1;
#X msg 385 344 knob5 \$1;
#X msg 443 344 knob6 \$1;
#X msg 503 345 knob7 \$1;
#X msg 563 345 knob8 \$1;
#X obj 163 12 ctlin;
#X obj 167 45 pack 0 0;
#X text 290 21 Oxygen 25 MIDI Map;
#X obj 45 19 notein;
#X obj 43 68 pack 0 0;
#X obj 43 98 s note;
#X obj 296 513 s control;
#X msg 207 398 button1 \$1;
#X msg 279 398 button2 \$1;
#X msg 492 399 button5 \$1;
#X msg 564 399 button6 \$1;
#X msg 421 398 button4 \$1;
#X msg 351 398 button3 \$1;
#X obj 144 125 route 1 7 74 71 91 93 73 72 5 84 113 114 115 116 117
118;
#X obj 581 45 pgmin;
#X obj 581 73 s programchange;
#X obj 19 164 bendin;
#X msg 19 189 bend \$1;
#X connect 0 0 16 0;
#X connect 1 0 16 0;
#X connect 2 0 16 0;
#X connect 3 0 16 0;
#X connect 4 0 16 0;
#X connect 5 0 16 0;
#X connect 6 0 16 0;
#X connect 7 0 16 0;
#X connect 8 0 16 0;
#X connect 9 0 16 0;
#X connect 10 0 11 1;
#X connect 10 1 11 0;
#X connect 11 0 23 0;
#X connect 13 0 14 0;
#X connect 13 1 14 1;
#X connect 14 0 15 0;
#X connect 17 0 16 0;
#X connect 18 0 16 0;
#X connect 19 0 16 0;
#X connect 20 0 16 0;
#X connect 21 0 16 0;
#X connect 22 0 16 0;
#X connect 23 0 0 0;
#X connect 23 1 1 0;
#X connect 23 2 2 0;
#X connect 23 3 3 0;
#X connect 23 4 4 0;
#X connect 23 5 5 0;
#X connect 23 6 6 0;
#X connect 23 7 7 0;
#X connect 23 8 8 0;
#X connect 23 9 9 0;
#X connect 23 10 17 0;
#X connect 23 11 18 0;
#X connect 23 12 22 0;
#X connect 23 13 21 0;
#X connect 23 14 19 0;
#X connect 23 15 20 0;
#X connect 24 0 25 0;
#X connect 26 0 27 0;
#X connect 27 0 16 0;
