#N canvas 419 142 829 538 10;
#X msg 27 341 mod \$1;
#X msg 78 342 volume \$1;
#X msg 146 342 knob1 \$1;
#X msg 206 343 knob2 \$1;
#X msg 264 343 knob3 \$1;
#X msg 324 344 knob4 \$1;
#X msg 385 344 knob5 \$1;
#X msg 443 344 knob6 \$1;
#X msg 503 345 knob7 \$1;
#X msg 563 345 knob8 \$1;
#X obj 163 12 ctlin;
#X obj 167 45 pack 0 0;
#X obj 696 139 notein;
#X obj 694 168 pack 0 0;
#X obj 572 247 s note;
#X obj 296 513 s control;
#X msg 207 398 button1 \$1;
#X msg 279 398 button2 \$1;
#X msg 492 399 button5 \$1;
#X msg 564 399 button6 \$1;
#X msg 421 398 button4 \$1;
#X msg 351 398 button3 \$1;
#X obj 144 125 route 1 7 74 71 91 93 73 72 5 84 113 114 115 116 117
118;
#X obj 581 45 pgmin;
#X obj 581 73 s programchange;
#X obj 19 164 bendin;
#X msg 19 189 bend \$1;
#N canvas 0 22 863 652 arp 0;
#X obj 82 28 inlet control;
#X msg 220 334 line 0;
#X msg 179 338 step;
#X obj 178 187 bng 15 250 50 0 empty empty empty 17 7 0 10 -262144
-1 -1;
#X obj 178 126 tgl 15 0 empty empty empty 17 7 0 10 -262144 -1 -1 1
1;
#X obj 419 156 unpack 0 0;
#X obj 177 225 text size notes;
#X obj 148 306 sel 0;
#X obj 409 466 text set notes;
#X obj 435 438 + 1;
#X obj 399 259 spigot;
#X obj 504 211 sel 0;
#X obj 506 260 f;
#X obj 476 186 t f f;
#X obj 505 234 del;
#X obj 403 342 text search notes;
#X obj 405 368 sel -1;
#X obj 541 345 text search notes;
#X obj 543 371 sel -1;
#X obj 410 400 f;
#X obj 574 403 text delete notes;
#X obj 402 304 t f f;
#X obj 398 186 t f f;
#X obj 181 362 text sequence notes;
#X obj 212 306 t b b;
#X obj 190 79 loadbang;
#X obj 178 161 metro 200;
#X obj 173 395 makenote 100 100;
#X obj 180 424 pack 0 0;
#X obj 53 137 expr 60000 / $f1;
#X obj 64 64 route volume;
#X obj 181 455 outlet note;
#X obj 424 117 inlet note;
#X obj 305 37 text define notes;
#X obj 60 88 * 4;
#X obj 59 113 + 20;
#X obj 180 257 t f f b f;
#X msg 123 89 200;
#X obj 74 315 /;
#X connect 0 0 30 0;
#X connect 1 0 23 0;
#X connect 2 0 23 0;
#X connect 3 0 6 0;
#X connect 4 0 26 0;
#X connect 5 0 22 0;
#X connect 5 1 13 0;
#X connect 6 0 36 0;
#X connect 7 1 2 0;
#X connect 9 0 8 1;
#X connect 10 0 21 0;
#X connect 11 0 14 0;
#X connect 12 0 17 0;
#X connect 13 0 10 1;
#X connect 13 1 11 0;
#X connect 14 0 12 0;
#X connect 15 0 16 0;
#X connect 16 0 19 0;
#X connect 17 0 18 0;
#X connect 18 1 20 0;
#X connect 19 0 8 0;
#X connect 21 0 15 0;
#X connect 21 1 19 1;
#X connect 22 0 10 0;
#X connect 22 1 12 1;
#X connect 23 0 27 0;
#X connect 23 1 24 0;
#X connect 24 0 2 0;
#X connect 24 1 1 0;
#X connect 25 0 4 0;
#X connect 25 0 37 0;
#X connect 26 0 3 0;
#X connect 27 0 28 0;
#X connect 27 1 28 1;
#X connect 28 0 31 0;
#X connect 29 0 26 1;
#X connect 29 0 38 0;
#X connect 30 0 34 0;
#X connect 32 0 5 0;
#X connect 34 0 35 0;
#X connect 35 0 29 0;
#X connect 36 0 7 0;
#X connect 36 1 9 0;
#X connect 36 2 38 0;
#X connect 36 3 38 1;
#X connect 37 0 29 0;
#X connect 38 0 27 2;
#X restore 566 226 pd arp;
#X text 245 16 Arpeggiator MIDI Map;
#X obj 558 175 r control;
#X connect 0 0 15 0;
#X connect 1 0 15 0;
#X connect 2 0 15 0;
#X connect 3 0 15 0;
#X connect 4 0 15 0;
#X connect 5 0 15 0;
#X connect 6 0 15 0;
#X connect 7 0 15 0;
#X connect 8 0 15 0;
#X connect 9 0 15 0;
#X connect 10 0 11 1;
#X connect 10 1 11 0;
#X connect 11 0 22 0;
#X connect 12 0 13 0;
#X connect 12 1 13 1;
#X connect 13 0 27 1;
#X connect 16 0 15 0;
#X connect 17 0 15 0;
#X connect 18 0 15 0;
#X connect 19 0 15 0;
#X connect 20 0 15 0;
#X connect 21 0 15 0;
#X connect 22 0 0 0;
#X connect 22 1 1 0;
#X connect 22 2 2 0;
#X connect 22 3 3 0;
#X connect 22 4 4 0;
#X connect 22 5 5 0;
#X connect 22 6 6 0;
#X connect 22 7 7 0;
#X connect 22 8 8 0;
#X connect 22 9 9 0;
#X connect 22 10 16 0;
#X connect 22 11 17 0;
#X connect 22 12 21 0;
#X connect 22 13 20 0;
#X connect 22 14 18 0;
#X connect 22 15 19 0;
#X connect 23 0 24 0;
#X connect 25 0 26 0;
#X connect 26 0 15 0;
#X connect 27 0 14 0;
#X connect 29 0 27 0;
