#N canvas 750 27 450 300 10;
#X text 77 21 Put all your shared initializing stuff in here;
#X msg 12 106 1;
#X obj 12 82 loadbang;
#X obj 12 132 s programchange;
#X obj 205 148 del 1000;
#X msg 224 112 \; pd dsp 1;
#X obj 204 89 loadbang;
#X msg 205 171 \; pd-startsound.pd clear;
#X obj 342 52 control_map;
#X obj 203 50 startsound;
#X connect 1 0 3 0;
#X connect 2 0 1 0;
#X connect 4 0 7 0;
#X connect 6 0 4 0;
#X connect 6 0 5 0;
