#N canvas 117 159 829 538 10;
#X obj 62 180 route 1 7 74 71 91 93 73 72 5 84;
#X obj 331 89 route 113 114 115 116 117 118;
#X msg 27 341 mod \$1;
#X msg 78 342 volume \$1;
#X msg 146 342 knob1 \$1;
#X msg 206 343 knob2 \$1;
#X msg 264 343 knob3 \$1;
#X msg 324 344 knob4 \$1;
#X msg 385 344 knob5 \$1;
#X msg 443 344 knob6 \$1;
#X msg 503 345 knob7 \$1;
#X msg 563 345 knob8 \$1;
#X obj 328 129 moses 1;
#X msg 327 152 button1 0;
#X msg 394 152 button1 1;
#X obj 463 126 moses 1;
#X obj 446 186 moses 1;
#X obj 581 183 moses 1;
#X obj 490 254 moses 1;
#X obj 625 251 moses 1;
#X msg 462 149 button2 0;
#X msg 529 149 button2 1;
#X msg 445 209 button3 0;
#X msg 512 209 button3 1;
#X msg 580 206 button4 0;
#X msg 647 206 button4 1;
#X msg 489 277 button5 0;
#X msg 556 277 button5 1;
#X msg 624 274 button6 0;
#X msg 691 274 button6 1;
#X obj 163 12 ctlin;
#X obj 167 45 pack 0 0;
#X text 290 21 Oxygen 25 MIDI Map;
#X obj 45 19 notein;
#X obj 43 68 pack 0 0;
#X obj 43 98 s note;
#X obj 296 513 s control;
#X connect 0 0 2 0;
#X connect 0 1 3 0;
#X connect 0 2 4 0;
#X connect 0 3 5 0;
#X connect 0 4 6 0;
#X connect 0 5 7 0;
#X connect 0 6 8 0;
#X connect 0 7 9 0;
#X connect 0 8 10 0;
#X connect 0 9 11 0;
#X connect 1 0 12 0;
#X connect 1 1 15 0;
#X connect 1 2 16 0;
#X connect 1 3 17 0;
#X connect 1 4 18 0;
#X connect 1 5 19 0;
#X connect 2 0 36 0;
#X connect 3 0 36 0;
#X connect 4 0 36 0;
#X connect 5 0 36 0;
#X connect 6 0 36 0;
#X connect 7 0 36 0;
#X connect 8 0 36 0;
#X connect 9 0 36 0;
#X connect 10 0 36 0;
#X connect 11 0 36 0;
#X connect 12 0 13 0;
#X connect 12 1 14 0;
#X connect 13 0 36 0;
#X connect 14 0 36 0;
#X connect 15 0 20 0;
#X connect 15 1 21 0;
#X connect 16 0 22 0;
#X connect 16 1 23 0;
#X connect 17 0 24 0;
#X connect 17 1 25 0;
#X connect 18 0 26 0;
#X connect 18 1 27 0;
#X connect 19 0 28 0;
#X connect 19 1 29 0;
#X connect 20 0 36 0;
#X connect 21 0 36 0;
#X connect 22 0 36 0;
#X connect 23 0 36 0;
#X connect 24 0 36 0;
#X connect 25 0 36 0;
#X connect 26 0 36 0;
#X connect 27 0 36 0;
#X connect 28 0 36 0;
#X connect 29 0 36 0;
#X connect 30 0 31 1;
#X connect 30 1 31 0;
#X connect 31 0 1 0;
#X connect 31 0 0 0;
#X connect 33 0 34 0;
#X connect 33 1 34 1;
#X connect 34 0 35 0;
