#N canvas 82 97 594 611 10;
#X declare -path lib/rj/;
#X declare -path lib/;
#X obj 177 19 dac~;
#X obj 12 213 pgmin;
#X msg 59 208 1;
#X text 90 204 Generates a polyphonic sub-patch with 8 copies of the
numbered patch;
#X obj 358 120 del 1000;
#X msg 373 58 \; pd dsp 1;
#X obj 22 155 loadbang;
#X obj 177 53 r loadbang;
#X obj 5 0 declare -path lib/rj/;
#X obj 150 -8 catch~ L;
#X obj 216 -9 catch~ R;
#N canvas 0 22 450 300 WORKSPACE 0;
#X restore 186 134 pd WORKSPACE;
#X obj 185 108 control_map;
#X obj 342 -5 loadbang;
#X msg 22 254 \; pd-WORKSPACE clear \; pd-WORKSPACE obj 0 0 poly8 modules/\$1
\; loadbang bang \;;
#X obj 5 25 declare -path lib/;
#X obj 264 92 init;
#X msg 356 150 \; pd-startsound.pd clear;
#X obj 264 72 startsound;
#X connect 1 0 14 0;
#X connect 2 0 14 0;
#X connect 4 0 17 0;
#X connect 6 0 2 0;
#X connect 9 0 0 0;
#X connect 10 0 0 1;
#X connect 13 0 5 0;
#X connect 13 0 4 0;
