#N canvas 63 144 568 498 10;
#X declare -path lib/rj/;
#X declare -path lib/;
#X obj 177 19 dac~;
#X msg 12 106 1;
#X obj 358 120 del 1000;
#X msg 373 58 \; pd dsp 1;
#X obj 12 82 loadbang;
#X obj 177 53 r loadbang;
#X obj 5 0 declare -path lib/rj/;
#X obj 150 -8 catch~ L;
#X obj 216 -9 catch~ R;
#N canvas 819 204 546 447 WORKSPACE 0;
#X restore 186 134 pd WORKSPACE;
#X obj 185 108 control_map;
#X obj 342 -5 loadbang;
#X obj 5 25 declare -path lib/;
#X obj 264 92 init;
#X msg 356 150 \; pd-startsound.pd clear;
#X text 8 251 Generates a sub-patch with a copy of the numbered patch
;
#X msg 18 310 \; pd-WORKSPACE clear \; pd-WORKSPACE obj 78 114 modules/\$1/main
\; pd-WORKSPACE obj 288 188 throw~ R \; pd-WORKSPACE obj 27 277 throw~
L \; pd-WORKSPACE obj 260 16 r control \; pd-WORKSPACE obj 79 5 r note
\; pd-WORKSPACE connect 0 0 2 0 \; pd-WORKSPACE connect 0 1 1 0 \;
pd-WORKSPACE connect 3 0 0 1 \; pd-WORKSPACE connect 4 0 0 0 \; loadbang
bang \;;
#X obj 15 276 r programchange;
#X obj 12 132 s programchange;
#X obj 264 72 startsound;
#X connect 1 0 18 0;
#X connect 2 0 14 0;
#X connect 3 0 0 0;
#X connect 3 0 0 0;
#X connect 4 0 1 0;
#X connect 7 0 0 0;
#X connect 8 0 0 1;
#X connect 11 0 3 0;
#X connect 11 0 2 0;
#X connect 17 0 16 0;
