#N canvas 111 221 504 458 10;
#X declare -path lib/rj/;
#X declare -path lib/;
#X declare -path modules/;
#X obj 212 53 dac~;
#X obj 212 87 r loadbang;
#X obj 40 34 declare -path lib/rj/;
#X obj 185 26 catch~ L;
#X obj 251 25 catch~ R;
#N canvas 819 204 546 447 WORKSPACE 0;
#X restore 178 208 pd WORKSPACE;
#X obj 40 59 declare -path lib/;
#X text 42 182 Generates a sub-patch with a copy of the numbered patch
;
#X msg 52 241 \; pd-WORKSPACE clear \; pd-WORKSPACE obj 78 114 modules/\$1/main
\; pd-WORKSPACE obj 288 188 throw~ R \; pd-WORKSPACE obj 27 277 throw~
L \; pd-WORKSPACE obj 260 16 r control \; pd-WORKSPACE obj 79 5 r note
\; pd-WORKSPACE connect 0 0 2 0 \; pd-WORKSPACE connect 0 1 1 0 \;
pd-WORKSPACE connect 3 0 0 1 \; pd-WORKSPACE connect 4 0 0 0 \; loadbang
bang \;;
#X obj 49 207 r programchange;
#X text 41 126 edit this to configure initializaton ->;
#X obj 288 126 init;
#X obj 40 83 declare -path modules/;
#X connect 3 0 0 0;
#X connect 4 0 0 1;
#X connect 9 0 8 0;
