#N canvas 513 71 450 300 10;
#X obj 37 37 inlet note;
#X obj 31 232 outlet~ left;
#X obj 116 233 outlet~ right;
#X obj 178 36 inlet control;
#X obj 90 134 mtof;
#X obj 93 185 *~;
#X obj 60 72 unpack 0 0;
#X obj 146 160 / 127;
#X obj 91 160 osc~;
#X text 213 93 monophonic sin example;
#X connect 0 0 6 0;
#X connect 4 0 8 0;
#X connect 5 0 1 0;
#X connect 5 0 2 0;
#X connect 6 0 4 0;
#X connect 6 1 7 0;
#X connect 7 0 5 1;
#X connect 8 0 5 0;
