#N canvas 761 358 519 309 10;
#X obj 205 8 inlet note;
#X obj 205 34 unpack 0 0;
#X obj 212 56 poly 4;
#X obj 308 12 inlet control;
#X obj 186 254 outlet~ left;
#X obj 358 252 outlet~ right;
#X obj 194 168 voice;
#X text 18 7 rhodes-like 4 voice poyphony;
#X obj 199 105 route 1 2 3 4;
#X obj 200 82 pack 0 0 0;
#X obj 240 167 voice;
#X obj 282 167 voice;
#X obj 329 165 voice;
#X connect 0 0 1 0;
#X connect 1 0 2 0;
#X connect 1 1 2 1;
#X connect 2 0 9 0;
#X connect 2 1 9 1;
#X connect 2 2 9 2;
#X connect 3 0 6 1;
#X connect 3 0 10 1;
#X connect 3 0 11 1;
#X connect 3 0 12 1;
#X connect 6 0 4 0;
#X connect 6 1 5 0;
#X connect 8 0 6 0;
#X connect 8 1 10 0;
#X connect 8 2 11 0;
#X connect 8 3 12 0;
#X connect 9 0 8 0;
#X connect 10 0 4 0;
#X connect 10 1 5 0;
#X connect 11 0 4 0;
#X connect 11 1 5 0;
#X connect 12 0 4 0;
#X connect 12 1 5 0;
