#N canvas 513 71 575 628 10;
#X obj 37 37 inlet note;
#X obj 63 559 outlet~ left;
#X obj 148 560 outlet~ right;
#X obj 178 36 inlet control;
#X obj 60 72 unpack 0 0;
#X obj 70 101 poly 8;
#X obj 61 136 pack 0 0 0;
#X obj 61 164 route 1 2 3 4 5 6 7 8;
#X text 239 102 8-voice polyphonic saw example;
#X obj 140 514 /~ 8;
#X obj 45 222 voice;
#X obj 86 222 voice;
#X obj 126 223 voice;
#X obj 167 223 voice;
#X obj 207 223 voice;
#X obj 248 223 voice;
#X obj 288 224 voice;
#X obj 329 224 voice;
#X connect 0 0 4 0;
#X connect 4 0 5 0;
#X connect 4 1 5 1;
#X connect 5 0 6 0;
#X connect 5 1 6 1;
#X connect 5 2 6 2;
#X connect 6 0 7 0;
#X connect 7 0 10 0;
#X connect 7 1 11 0;
#X connect 7 2 12 0;
#X connect 7 3 13 0;
#X connect 7 4 14 0;
#X connect 7 5 15 0;
#X connect 7 6 16 0;
#X connect 7 7 17 0;
#X connect 9 0 1 0;
#X connect 9 0 2 0;
#X connect 10 0 9 0;
#X connect 11 0 9 0;
#X connect 12 0 9 0;
#X connect 13 0 9 0;
#X connect 14 0 9 0;
#X connect 15 0 9 0;
#X connect 16 0 9 0;
#X connect 17 0 9 0;
