#N canvas 513 71 575 628 10;
#X obj 37 37 inlet note;
#X obj 63 559 outlet~ left;
#X obj 148 560 outlet~ right;
#X obj 178 36 inlet control;
#X obj 60 72 unpack 0 0;
#X obj 70 101 poly 8;
#X obj 61 136 pack 0 0 0;
#X obj 61 164 route 1 2 3 4 5 6 7 8;
#X text 239 102 8-voice polyphonic saw example;
#N canvas 0 22 450 300 voice 0;
#X obj 116 114 mtof;
#X obj 119 165 *~;
#X obj 173 139 / 127;
#X obj 118 139 phasor~;
#X obj 120 83 unpack 0 0;
#X obj 116 27 inlet;
#X obj 114 207 outlet~;
#X connect 0 0 3 0;
#X connect 1 0 6 0;
#X connect 2 0 1 1;
#X connect 3 0 1 0;
#X connect 4 0 0 0;
#X connect 4 1 2 0;
#X connect 5 0 4 0;
#X restore 37 222 pd voice;
#N canvas 0 22 450 300 voice 0;
#X obj 116 114 mtof;
#X obj 119 165 *~;
#X obj 173 139 / 127;
#X obj 118 139 phasor~;
#X obj 120 83 unpack 0 0;
#X obj 116 27 inlet;
#X obj 114 207 outlet~;
#X connect 0 0 3 0;
#X connect 1 0 6 0;
#X connect 2 0 1 1;
#X connect 3 0 1 0;
#X connect 4 0 0 0;
#X connect 4 1 2 0;
#X connect 5 0 4 0;
#X restore 97 221 pd voice;
#N canvas 0 22 450 300 voice 0;
#X obj 116 114 mtof;
#X obj 119 165 *~;
#X obj 173 139 / 127;
#X obj 118 139 phasor~;
#X obj 120 83 unpack 0 0;
#X obj 116 27 inlet;
#X obj 114 207 outlet~;
#X connect 0 0 3 0;
#X connect 1 0 6 0;
#X connect 2 0 1 1;
#X connect 3 0 1 0;
#X connect 4 0 0 0;
#X connect 4 1 2 0;
#X connect 5 0 4 0;
#X restore 157 222 pd voice;
#N canvas 0 22 450 300 voice 0;
#X obj 116 114 mtof;
#X obj 119 165 *~;
#X obj 173 139 / 127;
#X obj 118 139 phasor~;
#X obj 120 83 unpack 0 0;
#X obj 116 27 inlet;
#X obj 114 207 outlet~;
#X connect 0 0 3 0;
#X connect 1 0 6 0;
#X connect 2 0 1 1;
#X connect 3 0 1 0;
#X connect 4 0 0 0;
#X connect 4 1 2 0;
#X connect 5 0 4 0;
#X restore 217 221 pd voice;
#N canvas 0 22 450 300 voice 0;
#X obj 116 114 mtof;
#X obj 119 165 *~;
#X obj 173 139 / 127;
#X obj 118 139 phasor~;
#X obj 120 83 unpack 0 0;
#X obj 116 27 inlet;
#X obj 114 207 outlet~;
#X connect 0 0 3 0;
#X connect 1 0 6 0;
#X connect 2 0 1 1;
#X connect 3 0 1 0;
#X connect 4 0 0 0;
#X connect 4 1 2 0;
#X connect 5 0 4 0;
#X restore 275 221 pd voice;
#N canvas 0 22 450 300 voice 0;
#X obj 116 114 mtof;
#X obj 119 165 *~;
#X obj 173 139 / 127;
#X obj 118 139 phasor~;
#X obj 120 83 unpack 0 0;
#X obj 116 27 inlet;
#X obj 114 207 outlet~;
#X connect 0 0 3 0;
#X connect 1 0 6 0;
#X connect 2 0 1 1;
#X connect 3 0 1 0;
#X connect 4 0 0 0;
#X connect 4 1 2 0;
#X connect 5 0 4 0;
#X restore 335 220 pd voice;
#N canvas 0 22 450 300 voice 0;
#X obj 116 114 mtof;
#X obj 119 165 *~;
#X obj 173 139 / 127;
#X obj 118 139 phasor~;
#X obj 120 83 unpack 0 0;
#X obj 116 27 inlet;
#X obj 114 207 outlet~;
#X connect 0 0 3 0;
#X connect 1 0 6 0;
#X connect 2 0 1 1;
#X connect 3 0 1 0;
#X connect 4 0 0 0;
#X connect 4 1 2 0;
#X connect 5 0 4 0;
#X restore 395 221 pd voice;
#N canvas 0 22 450 300 voice 0;
#X obj 116 114 mtof;
#X obj 119 165 *~;
#X obj 173 139 / 127;
#X obj 118 139 phasor~;
#X obj 120 83 unpack 0 0;
#X obj 116 27 inlet;
#X obj 114 207 outlet~;
#X connect 0 0 3 0;
#X connect 1 0 6 0;
#X connect 2 0 1 1;
#X connect 3 0 1 0;
#X connect 4 0 0 0;
#X connect 4 1 2 0;
#X connect 5 0 4 0;
#X restore 455 220 pd voice;
#X obj 140 514 /~ 8;
#X connect 0 0 4 0;
#X connect 4 0 5 0;
#X connect 4 1 5 1;
#X connect 5 0 6 0;
#X connect 5 1 6 1;
#X connect 5 2 6 2;
#X connect 6 0 7 0;
#X connect 7 0 9 0;
#X connect 7 1 10 0;
#X connect 7 2 11 0;
#X connect 7 3 12 0;
#X connect 7 4 13 0;
#X connect 7 5 14 0;
#X connect 7 6 15 0;
#X connect 7 7 16 0;
#X connect 9 0 17 0;
#X connect 10 0 17 0;
#X connect 11 0 17 0;
#X connect 12 0 17 0;
#X connect 13 0 17 0;
#X connect 14 0 17 0;
#X connect 15 0 17 0;
#X connect 16 0 17 0;
#X connect 17 0 1 0;
#X connect 17 0 2 0;
