#N canvas 223 23 1280 678 10;
#X obj 68 373 outlet~;
#X obj 12 129 inlet;
#X obj 138 263 sig~ \$1;
#X obj 12 148 route bang float;
#X obj -60 182 lb \$2 10;
#X obj -60 201 / 100;
#X obj -60 220 t b f;
#X floatatom -109 185 5 0 0 0 - - -, f 5;
#X obj -137 337 osc~ 1e-08;
#X obj -80 318 + 0.25;
#X obj -137 269 random 100;
#X obj 55 251 + \$1;
#X obj 47 222 t b f;
#X obj -137 288 / 5e+06;
#X obj -14 366 /~ 1;
#X obj 5 317 abs;
#X obj -76 164 bng 15 250 50 0 empty empty empty 17 7 0 10 -262144
-1 -1;
#X obj 47 294 - 101;
#X text 126 89 arg 1 - argument for sig~. arg 2 - "phatness" \, out
of 100 (default 10);
#X obj -37 282 markex/randomF 0.01;
#X obj -60 249 markex/randomF;
#X connect 1 0 3 0;
#X connect 2 0 0 0;
#X connect 3 0 4 0;
#X connect 3 1 12 0;
#X connect 4 0 5 0;
#X connect 4 0 17 0;
#X connect 5 0 6 0;
#X connect 6 0 10 0;
#X connect 6 0 19 0;
#X connect 6 0 20 0;
#X connect 6 1 20 1;
#X connect 7 0 4 0;
#X connect 8 0 14 0;
#X connect 9 0 8 1;
#X connect 10 0 13 0;
#X connect 11 0 2 0;
#X connect 12 0 11 0;
#X connect 12 1 11 1;
#X connect 13 0 8 0;
#X connect 14 0 0 0;
#X connect 15 0 14 1;
#X connect 16 0 4 0;
#X connect 17 0 15 0;
#X connect 19 0 9 0;
#X connect 20 0 11 0;
