#N canvas 127 23 883 709 10;
#X obj 29 27 text define notes;
#X msg 220 334 line 0;
#X msg 179 338 step;
#X obj 178 187 bng 15 250 50 0 empty empty empty 17 7 0 10 -262144
-1 -1;
#X obj 178 126 tgl 15 0 empty empty empty 17 7 0 10 -262144 -1 -1 1
1;
#X obj 419 156 unpack 0 0;
#X obj 177 225 text size notes;
#X obj 148 306 sel 0;
#X obj 409 466 text set notes;
#X obj 435 438 + 1;
#X obj 399 259 spigot;
#X obj 504 211 sel 0;
#X obj 506 260 f;
#X obj 476 186 t f f;
#X obj 505 234 del;
#X obj 403 342 text search notes;
#X obj 405 368 sel -1;
#X obj 541 345 text search notes;
#X obj 543 371 sel -1;
#X obj 410 400 f;
#X obj 574 403 text delete notes;
#X obj 402 304 t f f;
#X obj 214 253 t f f;
#X obj 398 186 t f f;
#X obj 181 455 s note;
#X obj 181 362 text sequence notes;
#X obj 420 94 notein;
#X obj 424 117 pack 0 0;
#X obj 212 306 t b b;
#X obj 186 93 loadbang;
#X msg 51 841 mod \$1;
#X msg 169 840 knob1 \$1;
#X msg 229 841 knob2 \$1;
#X msg 287 841 knob3 \$1;
#X msg 347 842 knob4 \$1;
#X msg 408 842 knob5 \$1;
#X msg 466 842 knob6 \$1;
#X msg 526 843 knob7 \$1;
#X msg 586 843 knob8 \$1;
#X obj 186 510 ctlin;
#X obj 190 543 pack 0 0;
#X msg 228 905 button1 \$1;
#X msg 300 905 button2 \$1;
#X msg 513 906 button5 \$1;
#X msg 585 906 button6 \$1;
#X msg 442 905 button4 \$1;
#X msg 372 905 button3 \$1;
#X obj 167 623 route 1 7 74 71 91 93 73 72 5 84 113 114 115 116 117
118;
#X obj 604 543 pgmin;
#X obj 604 571 s programchange;
#X text 304 36 arpeggiator control map;
#X obj 178 161 metro 200;
#X obj 173 395 makenote 100 100;
#X obj 180 424 pack 0 0;
#X obj 345 958 s control;
#X msg 101 838 bpm \$1;
#X obj 79 149 r bpm;
#X connect 1 0 25 0;
#X connect 2 0 25 0;
#X connect 3 0 6 0;
#X connect 4 0 51 0;
#X connect 5 0 23 0;
#X connect 5 1 13 0;
#X connect 6 0 22 0;
#X connect 7 1 2 0;
#X connect 9 0 8 1;
#X connect 10 0 21 0;
#X connect 11 0 14 0;
#X connect 12 0 17 0;
#X connect 13 0 10 1;
#X connect 13 1 11 0;
#X connect 14 0 12 0;
#X connect 15 0 16 0;
#X connect 16 0 19 0;
#X connect 17 0 18 0;
#X connect 18 1 20 0;
#X connect 19 0 8 0;
#X connect 21 0 15 0;
#X connect 21 1 19 1;
#X connect 22 0 7 0;
#X connect 22 1 9 0;
#X connect 23 0 10 0;
#X connect 23 1 12 1;
#X connect 25 0 52 0;
#X connect 25 1 28 0;
#X connect 26 0 27 0;
#X connect 26 1 27 1;
#X connect 27 0 5 0;
#X connect 28 0 2 0;
#X connect 28 1 1 0;
#X connect 29 0 4 0;
#X connect 30 0 54 0;
#X connect 31 0 54 0;
#X connect 32 0 54 0;
#X connect 33 0 54 0;
#X connect 34 0 54 0;
#X connect 35 0 54 0;
#X connect 36 0 54 0;
#X connect 37 0 54 0;
#X connect 38 0 54 0;
#X connect 39 0 40 1;
#X connect 39 1 40 0;
#X connect 40 0 47 0;
#X connect 41 0 54 0;
#X connect 42 0 54 0;
#X connect 43 0 54 0;
#X connect 44 0 54 0;
#X connect 45 0 54 0;
#X connect 46 0 54 0;
#X connect 47 0 30 0;
#X connect 47 1 55 0;
#X connect 47 2 31 0;
#X connect 47 3 32 0;
#X connect 47 4 33 0;
#X connect 47 5 34 0;
#X connect 47 6 35 0;
#X connect 47 7 36 0;
#X connect 47 8 37 0;
#X connect 47 9 38 0;
#X connect 47 10 41 0;
#X connect 47 11 42 0;
#X connect 47 12 46 0;
#X connect 47 13 45 0;
#X connect 47 14 43 0;
#X connect 47 15 44 0;
#X connect 48 0 49 0;
#X connect 51 0 3 0;
#X connect 52 0 53 0;
#X connect 52 1 53 1;
#X connect 53 0 24 0;
#X connect 55 0 54 0;
