#N canvas 346 285 450 300 10;
#X text 77 21 Put all your shared initializing stuff in here;
#X msg 12 106 1;
#X obj 12 82 loadbang;
#X obj 12 132 s programchange;
#X obj 115 135 nbx 2 14 1 10 0 0 programchange empty program 0 -8 0
10 -262144 -1 -1 1 256;
#X obj 343 85 control_map;
#X obj 343 110 startsound;
#X obj 218 209 del 1000;
#X msg 233 147 \; pd dsp 1;
#X obj 202 84 loadbang;
#X msg 216 239 \; pd-startsound.pd clear;
#X connect 1 0 3 0;
#X connect 2 0 1 0;
#X connect 7 0 10 0;
#X connect 9 0 7 0;
#X connect 9 0 8 0;
