#N canvas 231 187 766 544 10;
#X obj 18 82 text define \$0-notes;
#X text 156 12 arppegiate incoming notes into looping sequence;
#X obj 431 107 unpack 0 0;
#X obj 431 84 inlet note;
#X obj 268 85 inlet bpm;
#X obj 220 114 expr 60000 / $f1;
#X obj 195 144 metro 200;
#X obj 195 179 text size \$0-notes;
#X obj 25 177 outlet clock;
#X obj 195 210 t f f;
#X obj 192 252 sel 0;
#X msg 193 286 step;
#X msg 234 286 line 0;
#X obj 240 253 t b b;
#X obj 181 362 text sequence \$0-notes;
#X obj 181 393 outlet note;
#X obj 446 390 + 1;
#X obj 415 219 spigot;
#X obj 520 175 sel 0;
#X obj 522 220 f;
#X obj 492 146 t f f;
#X obj 416 320 sel -1;
#X obj 554 323 sel -1;
#X obj 421 352 f;
#X obj 413 256 t f f;
#X obj 414 146 t f f;
#X obj 420 418 text set \$0-notes;
#X obj 585 355 text delete \$0-notes;
#X obj 414 294 text search \$0-notes;
#X obj 552 297 text search \$0-notes;
#X obj 184 84 inlet metro;
#X obj 523 195 del;
#X connect 2 0 25 0;
#X connect 2 1 20 0;
#X connect 3 0 2 0;
#X connect 4 0 5 0;
#X connect 5 0 6 1;
#X connect 6 0 7 0;
#X connect 6 0 8 0;
#X connect 7 0 9 0;
#X connect 9 0 10 0;
#X connect 9 1 16 0;
#X connect 10 1 11 0;
#X connect 11 0 14 0;
#X connect 12 0 14 0;
#X connect 13 0 11 0;
#X connect 13 1 12 0;
#X connect 14 0 15 0;
#X connect 14 1 13 0;
#X connect 16 0 26 1;
#X connect 17 0 24 0;
#X connect 18 0 31 0;
#X connect 19 0 29 0;
#X connect 20 0 17 1;
#X connect 20 1 18 0;
#X connect 21 0 23 0;
#X connect 22 1 27 0;
#X connect 23 0 26 0;
#X connect 24 0 28 0;
#X connect 24 1 23 1;
#X connect 25 0 17 0;
#X connect 25 1 19 1;
#X connect 28 0 21 0;
#X connect 29 0 22 0;
#X connect 30 0 6 0;
#X connect 31 0 19 0;
