#N canvas 448 230 513 406 10;
#X obj 79 29 poly 8 1;
#X obj 78 84 route 1 2 3 4 5 6 7 8;
#X obj 78 60 pack 0 0 0;
#X obj 79 5 r note;
#X obj 260 16 r control;
#X obj 48 358 throw~ L;
#X obj 360 238 throw~ R;
#X obj 78 114 \$1;
#X obj 93 137 \$1;
#X obj 108 160 \$1;
#X obj 124 184 \$1;
#X obj 138 206 \$1;
#X obj 153 229 \$1;
#X obj 167 252 \$1;
#X obj 184 276 \$1;
#X text 267 52 Load 8 copies of a patch and polyphically route MIDI
notes to them;
#X text 264 92 arg1: patch to load;
#X text 264 117 patch should have 2 inlets for note & control and 2
outlets for L & R;
#X connect 0 0 2 0;
#X connect 0 1 2 1;
#X connect 0 2 2 2;
#X connect 1 0 7 0;
#X connect 1 1 8 0;
#X connect 1 2 9 0;
#X connect 1 3 10 0;
#X connect 1 4 11 0;
#X connect 1 5 12 0;
#X connect 1 6 13 0;
#X connect 1 7 14 0;
#X connect 2 0 1 0;
#X connect 3 0 0 0;
#X connect 4 0 7 1;
#X connect 4 0 8 1;
#X connect 4 0 9 1;
#X connect 4 0 10 1;
#X connect 4 0 11 1;
#X connect 4 0 12 1;
#X connect 4 0 13 1;
#X connect 4 0 14 1;
#X connect 7 0 5 0;
#X connect 7 1 6 0;
#X connect 8 0 5 0;
#X connect 8 1 6 0;
#X connect 9 0 5 0;
#X connect 9 1 6 0;
#X connect 10 0 5 0;
#X connect 10 1 6 0;
#X connect 11 0 5 0;
#X connect 11 1 6 0;
#X connect 12 0 5 0;
#X connect 12 1 6 0;
#X connect 13 0 5 0;
#X connect 13 1 6 0;
#X connect 14 0 5 0;
#X connect 14 1 6 0;
