#N canvas 373 465 450 300 10;
#X obj 269 116 textfile;
#X obj 278 6 loadbang;
#X msg 161 64 set \$1;
#X obj 101 116 bng 15 250 50 0 empty empty empty 17 7 0 10 -258113
-1 -1;
#X obj 118 116 bng 15 250 50 0 empty empty empty 17 7 0 10 -4034 -1
-1;
#X msg 227 88 rewind;
#X msg 175 90 bang, f 6;
#X obj 281 31 t b b b;
#X msg 101 175 write \$1.preset;
#X msg 279 90 read \$1.preset;
#X obj 161 33 inlet;
#X obj 272 145 outlet;
#X obj 100 154 symbol \$1;
#X obj 275 62 symbol \$1;
#X connect 0 0 11 0;
#X connect 1 0 7 0;
#X connect 2 0 0 0;
#X connect 3 0 12 0;
#X connect 4 0 7 0;
#X connect 5 0 0 0;
#X connect 6 0 0 0;
#X connect 7 0 6 0;
#X connect 7 1 5 0;
#X connect 7 2 13 0;
#X connect 8 0 0 0;
#X connect 9 0 0 0;
#X connect 10 0 2 0;
#X connect 12 0 8 0;
#X connect 13 0 9 0;
#X coords 0 -1 1 1 34 32 1 100 100;
