#N canvas 345 610 762 163 10;
#X obj 255 26 loadbang;
#X obj 31 18 r \$2/control/\$4;
#X obj 260 107 s \$3/control/\$4;
#X msg 255 53 0;
#X obj 254 78 text get \$1 \$4;
#X obj 34 53 t f b;
#X obj 110 62 f \$4;
#X obj 13 94 text set \$1 0 \$5;
#X connect 0 0 3 0;
#X connect 1 0 5 0;
#X connect 3 0 4 0;
#X connect 4 0 2 0;
#X connect 5 0 7 0;
#X connect 5 1 6 0;
#X connect 6 0 7 2;
#X coords 0 163 1 162 34 32 0;
