#N canvas 475 248 156 209 10;
#X obj 23 103 mtof;
#X obj 24 78 line 0 100;
#X obj 24 131 osc~;
#X msg 24 50 127 1000;
#X obj 24 23 loadbang;
#X obj 15 166 throw~ L;
#X obj 76 166 throw~ R;
#X connect 0 0 2 0;
#X connect 1 0 0 0;
#X connect 2 0 5 0;
#X connect 2 0 6 0;
#X connect 3 0 1 0;
#X connect 4 0 3 0;
