#N canvas 513 71 575 628 10;
#X obj 37 37 inlet note;
#X obj 63 559 outlet~ left;
#X obj 148 560 outlet~ right;
#X obj 178 36 inlet control;
#X obj 60 72 unpack 0 0;
#X obj 61 136 pack 0 0 0;
#X obj 167 223 voice;
#X text 239 102 4-voice polyphonic hoover;
#X obj 70 101 poly 4;
#X obj 61 164 route 1 2 3 4;
#X obj 140 514 /~ 4;
#X obj 45 222 voice;
#X obj 86 222 voice;
#X obj 126 223 voice;
#X connect 0 0 4 0;
#X connect 4 0 8 0;
#X connect 4 1 8 1;
#X connect 5 0 9 0;
#X connect 6 0 10 0;
#X connect 8 0 5 0;
#X connect 8 1 5 1;
#X connect 8 2 5 2;
#X connect 9 0 11 0;
#X connect 9 1 12 0;
#X connect 9 2 13 0;
#X connect 9 3 6 0;
#X connect 10 0 1 0;
#X connect 10 0 2 0;
#X connect 11 0 10 0;
#X connect 12 0 10 0;
#X connect 13 0 10 0;
