#N canvas 247 218 742 535 10;
#X obj 129 153 hoover~;
#X obj 129 104 mtof;
#X obj 128 128 sig~;
#X obj 133 211 outlet~, f 8;
#X obj 129 45 inlet;
#X obj 129 75 unpack 0 0;
#X obj 274 158 line;
#X obj 143 184 *~;
#X obj 307 103 / 127;
#X obj 274 63 moses 1;
#X msg 267 96 0 500;
#X msg 306 134 \$1 100;
#X connect 0 0 7 0;
#X connect 1 0 2 0;
#X connect 2 0 0 0;
#X connect 4 0 5 0;
#X connect 5 0 1 0;
#X connect 5 1 9 0;
#X connect 6 0 7 1;
#X connect 7 0 3 0;
#X connect 8 0 11 0;
#X connect 9 0 10 0;
#X connect 9 1 8 0;
#X connect 10 0 6 0;
#X connect 11 0 6 0;
